<?xml version="1.0" standalone="no"?>
<!DOCTYPE svg PUBLIC "-//W3C//DTD SVG 20010904//EN"
 "http://www.w3.org/TR/2001/REC-SVG-20010904/DTD/svg10.dtd">
<svg version="1.0" xmlns="http://www.w3.org/2000/svg"
 width="800.000000pt" height="800.000000pt" viewBox="0 0 800.000000 800.000000"
 preserveAspectRatio="xMidYMid meet">

<g transform="translate(0.000000,800.000000) scale(0.100000,-0.100000)"
fill="#000000" stroke="none">
<path d="M4617 6573 c-3 -3 13 -15 36 -28 97 -52 125 -70 187 -120 36 -30 76
-66 90 -82 14 -15 52 -52 83 -81 31 -30 57 -59 57 -66 0 -7 18 -37 40 -66 23
-31 40 -65 40 -80 0 -23 4 -26 38 -27 98 -3 131 -7 126 -15 -3 -4 2 -5 10 -2
9 3 16 2 16 -3 0 -5 26 -20 58 -32 90 -37 183 -83 228 -113 23 -15 47 -28 53
-28 25 0 180 -110 266 -190 l60 -55 3 38 c3 39 -18 77 -43 77 -6 0 -29 18 -50
41 -22 22 -69 62 -105 87 -36 26 -71 52 -78 59 -7 7 -19 13 -25 13 -7 0 -36
16 -64 35 -29 19 -55 35 -58 35 -10 0 -169 114 -190 136 -18 18 -75 48 -155
82 -14 5 -65 42 -115 81 -49 39 -95 71 -102 71 -7 0 -10 6 -7 14 4 10 -10 25
-38 43 -24 15 -46 33 -51 40 -30 47 -286 160 -310 136z m453 -303 c0 -5 -4
-10 -10 -10 -5 0 -10 5 -10 10 0 6 5 10 10 10 6 0 10 -4 10 -10z m60 -86 c0
-8 -4 -12 -10 -9 -5 3 -10 10 -10 16 0 5 5 9 10 9 6 0 10 -7 10 -16z m30 -67
c0 -20 0 -20 -14 -2 -8 11 -12 23 -9 28 8 13 23 -3 23 -26z m320 -148 c39 -11
80 -30 93 -41 l22 -19 -33 16 c-19 9 -60 25 -93 35 -33 11 -67 24 -77 30 -16
11 -16 11 1 6 10 -3 49 -15 87 -27z m175 -89 c3 -5 -1 -10 -9 -10 -9 0 -16 5
-16 10 0 6 4 10 9 10 6 0 13 -4 16 -10z m75 -40 c0 -5 -2 -10 -4 -10 -3 0 -8
5 -11 10 -3 6 -1 10 4 10 6 0 11 -4 11 -10z m75 -50 c3 -5 2 -10 -4 -10 -5 0
-13 5 -16 10 -3 6 -2 10 4 10 5 0 13 -4 16 -10z"/>
<path d="M3290 6536 c-97 -50 -117 -61 -163 -94 -26 -19 -50 -39 -55 -46 -8
-14 -87 -76 -119 -93 -13 -7 -35 -13 -51 -13 -15 0 -37 -6 -48 -14 -13 -10
-23 -11 -31 -4 -23 18 -152 -40 -222 -101 -13 -12 -30 -21 -38 -21 -7 0 -13
-6 -13 -14 0 -18 -85 -96 -105 -96 -8 0 -15 -7 -15 -15 0 -8 -5 -15 -12 -15
-6 0 -9 -3 -6 -6 4 -3 17 0 29 7 15 8 24 8 27 1 1 -5 12 -8 23 -5 15 4 18 2
13 -11 -3 -9 -9 -16 -13 -16 -3 0 -33 -20 -66 -45 -33 -25 -67 -45 -76 -45 -9
0 -36 -16 -60 -35 -24 -19 -49 -35 -54 -35 -11 0 -99 -64 -153 -111 -39 -34
-47 -36 -32 -8 11 19 10 20 -10 9 -12 -6 -24 -9 -27 -6 -8 7 -33 -13 -33 -26
0 -5 6 -6 13 -2 6 4 4 -1 -5 -12 -13 -15 -17 -32 -13 -63 2 -24 6 -46 10 -49
3 -3 18 6 33 19 15 14 41 34 57 43 17 10 41 29 55 42 33 30 141 97 215 133 33
16 69 39 79 50 11 12 25 21 33 21 7 0 22 9 33 20 11 11 32 20 48 20 15 0 36 6
47 14 68 46 243 91 297 75 26 -7 28 -5 28 19 0 66 105 237 202 328 97 93 166
152 211 184 26 18 47 35 47 37 0 10 -41 -1 -80 -21z m-350 -375 c0 -6 -4 -13
-10 -16 -5 -3 -10 1 -10 9 0 9 5 16 10 16 6 0 10 -4 10 -9z m-30 -70 c0 -6 -4
-13 -10 -16 -5 -3 -10 1 -10 9 0 9 5 16 10 16 6 0 10 -4 10 -9z"/>
<path d="M3110 5800 c0 -5 5 -10 11 -10 5 0 7 5 4 10 -3 6 -8 10 -11 10 -2 0
-4 -4 -4 -10z"/>
<path d="M3340 5565 c7 -9 15 -13 17 -11 7 7 -7 26 -19 26 -6 0 -6 -6 2 -15z"/>
<path d="M4270 5500 c-8 -4 -105 -7 -215 -6 -110 1 -214 -2 -231 -6 -17 -5
-57 -10 -90 -12 -32 -2 -79 -11 -103 -20 -24 -9 -51 -14 -61 -11 -10 3 -35 -1
-56 -10 -36 -15 -38 -14 -61 7 -25 23 -29 19 -12 -13 8 -16 7 -25 -6 -39 -10
-11 -15 -26 -11 -35 3 -10 -4 -30 -18 -48 -52 -69 -113 -208 -100 -228 5 -8 2
-15 -30 -76 -9 -17 -16 -42 -16 -55 0 -13 -12 -49 -26 -79 -14 -29 -32 -67
-39 -84 -14 -34 -66 -239 -69 -270 0 -11 -5 -25 -9 -32 -4 -6 -10 -33 -14 -60
-3 -26 -14 -59 -25 -72 -10 -13 -18 -29 -18 -36 0 -7 -10 -20 -22 -29 l-23
-16 28 6 c32 7 74 -10 96 -40 11 -14 15 -15 22 -5 7 11 9 11 9 -2 0 -9 12 -24
28 -34 15 -9 37 -29 49 -43 l22 -26 -6 24 c-6 22 -5 24 10 11 9 -7 17 -19 17
-25 0 -6 16 -20 35 -30 19 -11 35 -23 35 -28 0 -5 3 -7 8 -4 7 4 22 -6 169
-119 43 -33 103 -76 133 -96 74 -49 140 -92 159 -104 9 -5 37 -29 64 -52 26
-23 60 -44 76 -48 16 -3 45 -21 64 -40 22 -22 37 -30 40 -22 2 7 25 23 51 35
25 13 46 27 46 32 0 4 10 10 23 14 12 3 49 30 82 61 33 30 96 78 142 106 45
28 90 60 99 70 9 11 21 19 26 19 18 0 81 49 99 77 11 15 19 22 19 15 0 -20 69
36 86 70 8 16 20 28 26 26 5 -2 29 13 52 34 22 21 45 38 49 38 5 0 34 20 65
45 31 25 67 53 79 63 35 27 26 122 -24 272 -13 41 -25 88 -27 105 -1 16 -7 40
-14 52 -7 12 -12 30 -12 40 0 23 -22 86 -36 104 -6 8 -17 37 -24 64 -7 28 -23
73 -36 102 -13 28 -24 59 -24 67 0 8 -4 17 -10 21 -5 3 -17 31 -27 63 -9 31
-21 62 -26 69 -24 33 -46 89 -41 105 3 11 0 18 -9 18 -17 0 -57 42 -57 60 0 7
8 23 18 34 10 12 4 10 -16 -7 -24 -19 -38 -24 -50 -18 -27 15 -128 33 -211 38
-41 3 -83 8 -91 13 -9 5 -22 5 -30 0z m-300 -40 c-19 -3 -39 -4 -44 -1 -16 8
26 18 53 12 24 -5 24 -6 -9 -11z m125 10 c4 -6 -5 -10 -20 -10 -15 0 -24 4
-20 10 3 6 12 10 20 10 8 0 17 -4 20 -10z m100 -10 c-3 -5 -13 -10 -21 -10 -8
0 -14 5 -14 10 0 6 9 10 21 10 11 0 17 -4 14 -10z m490 -90 c3 -5 2 -10 -4
-10 -5 0 -13 5 -16 10 -3 6 -2 10 4 10 5 0 13 -4 16 -10z m-473 -280 c185 -57
221 -203 87 -353 -61 -69 -167 -140 -293 -197 l-94 -43 -12 -66 c-38 -230 -41
-242 -66 -253 -13 -6 -27 -8 -30 -5 -4 3 10 73 30 156 20 82 36 151 36 153 0
2 -38 2 -84 0 -73 -4 -91 -1 -131 18 -61 29 -85 69 -85 139 0 148 153 286 364
326 90 17 152 19 161 5 8 -12 13 -11 -65 -16 -176 -12 -304 -83 -394 -219 -53
-80 -25 -178 59 -211 64 -24 169 -16 191 14 18 26 31 28 36 7 2 -12 21 -6 88
28 219 108 341 229 344 339 1 53 -28 87 -109 128 l-70 35 -140 0 c-118 0 -149
-4 -197 -22 -119 -44 -269 -165 -323 -261 -29 -52 -62 -162 -70 -240 -6 -57
-9 -63 -29 -60 -18 3 -21 9 -20 53 1 28 14 86 29 130 72 216 230 362 447 416
103 25 257 25 340 -1z m512 -126 c23 -23 19 -58 -10 -93 -21 -25 -34 -31 -64
-31 -30 0 -40 -5 -45 -21 -4 -11 -12 -18 -18 -16 -20 6 -19 41 2 98 17 45 26
57 53 66 48 15 65 15 82 -3z m-231 -226 c-1 -52 -46 -151 -111 -247 -21 -31
-37 -62 -34 -69 8 -25 40 -33 74 -19 54 23 70 49 73 118 2 34 8 66 15 73 8 8
10 -2 6 -37 -2 -26 0 -47 5 -47 14 0 79 106 85 140 7 32 -11 41 -34 18 -18
-18 -14 3 5 24 9 10 24 18 35 18 42 0 7 -132 -55 -206 -34 -40 -34 -52 0 -60
35 -9 85 18 133 73 21 24 43 43 49 43 47 0 -61 -121 -126 -140 -31 -10 -46 -9
-74 3 -34 14 -36 13 -67 -14 -44 -39 -99 -53 -130 -33 -22 15 -25 14 -61 -28
-48 -55 -114 -88 -173 -88 -55 0 -71 16 -72 74 -2 83 91 191 159 184 24 -2 31
-8 33 -30 6 -49 -57 -133 -118 -158 -37 -16 -28 -40 14 -40 41 0 113 46 152
96 23 30 33 56 41 112 19 124 112 296 156 290 19 -3 22 -9 20 -50z m436 -104
c2 -10 12 -38 22 -62 12 -26 22 -76 26 -135 l6 -93 -32 -27 c-18 -15 -37 -27
-43 -27 -5 0 -18 -10 -28 -22 -10 -13 -21 -20 -25 -16 -7 6 21 68 31 68 3 0 2
-6 -2 -12 -4 -7 2 -5 13 5 12 10 28 15 39 11 11 -3 15 -2 9 3 -6 4 -10 57 -11
123 0 82 -4 129 -17 163 -12 34 -13 47 -4 44 6 -2 14 -12 16 -23z m-1731 -189
c7 -14 12 -32 12 -40 0 -8 4 -15 8 -15 4 0 13 -21 20 -46 9 -33 17 -44 27 -40
8 3 12 0 10 -7 -6 -15 14 -41 38 -50 25 -9 10 -29 -15 -21 -14 4 -18 2 -14 -5
4 -6 2 -11 -4 -11 -7 0 -14 9 -17 20 -3 11 -13 20 -22 20 -21 0 -57 40 -52 59
2 12 0 12 -12 3 -21 -18 -30 -2 -10 20 9 11 11 18 5 18 -8 0 -12 21 -12 60 0
66 17 81 38 35z m142 -267 c0 -6 -6 -5 -15 2 -8 7 -15 14 -15 16 0 2 7 1 15
-2 8 -4 15 -11 15 -16z m280 -252 c0 -3 -4 -8 -10 -11 -5 -3 -10 -1 -10 4 0 6
5 11 10 11 6 0 10 -2 10 -4z"/>
<path d="M4636 4930 c-29 -36 -31 -41 -14 -58 20 -20 55 -13 78 15 48 62 -13
103 -64 43z"/>
<path d="M4423 4718 c-52 -82 -100 -228 -74 -228 22 0 110 166 126 238 10 48
-18 42 -52 -10z"/>
<path d="M4127 4449 c-33 -38 -54 -85 -43 -97 11 -10 62 20 88 52 63 79 21
122 -45 45z"/>
<path d="M3400 5491 c0 -5 5 -13 10 -16 6 -3 10 -2 10 4 0 5 -4 13 -10 16 -5
3 -10 2 -10 -4z"/>
<path d="M6375 4451 c-9 -27 -23 -55 -31 -61 -7 -7 -14 -20 -14 -30 0 -10 -7
-23 -15 -30 -17 -14 -75 -97 -75 -107 0 -9 -79 -113 -110 -144 -14 -14 -49
-56 -78 -93 -29 -36 -59 -66 -67 -66 -8 0 -25 -5 -39 -11 l-25 -12 24 -31 c13
-17 28 -49 34 -71 17 -66 29 -300 23 -450 -6 -147 -6 -181 -4 -230 2 -29 -3
-72 -27 -249 -6 -44 -9 -81 -7 -83 6 -7 119 -6 156 1 24 4 29 3 15 -3 -15 -6
-5 -8 34 -9 48 0 58 4 94 37 34 30 39 33 33 13 -4 -13 -3 -22 3 -22 18 0 50
56 67 121 10 35 23 71 29 79 7 8 13 22 13 30 1 17 34 112 42 120 3 3 6 17 7
33 0 15 4 35 8 45 4 9 9 39 12 66 2 28 9 59 15 69 19 36 29 81 38 167 5 47 13
104 18 127 6 27 6 45 -1 52 -7 7 -7 14 0 23 6 7 9 36 8 63 -2 28 1 73 7 100 5
28 11 69 13 93 2 24 9 50 15 57 7 9 10 35 7 67 -6 69 -35 191 -47 198 -5 3
-17 24 -26 45 -8 22 -32 57 -52 78 -20 20 -30 37 -23 37 7 0 9 5 5 11 -4 8 -9
7 -15 -2 -6 -11 -12 -10 -27 5 -19 17 -20 16 -37 -33z m-266 -530 c-5 -15 -23
-41 -40 -57 -28 -27 -29 -32 -24 -89 l5 -60 -18 65 c-19 71 -14 105 20 116 10
3 26 16 34 30 22 33 35 30 23 -5z m116 -1131 c-3 -5 -14 -10 -23 -10 -15 0
-15 2 -2 10 20 13 33 13 25 0z"/>
<path d="M1544 4403 c-43 -43 -114 -144 -114 -161 0 -4 -7 -20 -16 -37 -46
-87 -74 -196 -77 -297 -2 -67 2 -92 19 -128 39 -82 69 -240 46 -240 -12 0 -18
16 -27 78 -4 23 -11 40 -15 37 -5 -3 -11 3 -13 12 -3 10 -5 -13 -6 -51 -1 -85
55 -344 100 -461 16 -44 39 -106 50 -137 23 -70 54 -126 84 -153 12 -11 38
-43 58 -71 39 -54 44 -56 187 -83 106 -20 349 4 343 35 -1 5 -6 23 -12 39 -16
51 -34 138 -37 185 -2 25 -6 68 -9 95 -3 28 -7 95 -10 150 -2 55 -6 132 -8
170 -2 39 1 85 7 103 7 23 7 45 -1 75 -10 35 -9 52 3 86 8 24 12 52 9 62 -4
13 4 36 24 66 17 26 31 49 31 52 -1 3 -22 16 -49 28 -30 15 -57 37 -72 60 -13
21 -28 36 -33 34 -4 -2 -27 15 -50 38 -23 23 -45 39 -49 35 -3 -4 -14 12 -23
35 -11 28 -22 41 -35 41 -12 0 -24 12 -33 34 -8 19 -26 42 -40 51 -13 9 -28
29 -31 45 -4 16 -15 32 -25 35 -11 3 -22 16 -26 28 -3 12 -16 33 -29 47 -12
14 -25 37 -29 53 -3 15 -11 27 -16 27 -6 0 -10 7 -10 15 0 26 -19 17 -66 -32z
m500 -609 c20 -20 20 -34 1 -34 -8 0 -15 7 -15 15 0 8 -4 15 -10 15 -5 0 -10
5 -10 10 0 15 16 12 34 -6z m-4 -85 c0 -24 -4 -38 -10 -34 -5 3 -10 22 -10 41
0 19 5 34 10 34 6 0 10 -18 10 -41z"/>
<path d="M4071 3204 c0 -11 3 -14 6 -6 3 7 2 16 -1 19 -3 4 -6 -2 -5 -13z"/>
<path d="M4081 3104 c0 -11 3 -14 6 -6 3 7 2 16 -1 19 -3 4 -6 -2 -5 -13z"/>
<path d="M4080 3050 c0 -5 5 -10 11 -10 5 0 7 5 4 10 -3 6 -8 10 -11 10 -2 0
-4 -4 -4 -10z"/>
<path d="M4081 2920 c0 -8 4 -22 9 -30 12 -18 12 -2 0 25 -6 13 -9 15 -9 5z"/>
<path d="M4101 2534 c0 -11 3 -14 6 -6 3 7 2 16 -1 19 -3 4 -6 -2 -5 -13z"/>
<path d="M4083 2487 c-17 -36 -54 -77 -70 -77 -25 0 -92 -40 -103 -61 -6 -11
-19 -19 -28 -17 -27 4 -80 -22 -98 -49 -12 -20 -18 -23 -25 -12 -6 11 -15 9
-46 -8 -21 -12 -36 -24 -33 -26 3 -2 -1 -11 -8 -20 -11 -13 -18 -14 -32 -5
-25 16 -79 -8 -91 -40 -7 -19 -12 -22 -23 -13 -17 14 -86 -13 -86 -34 0 -17
-27 -20 -32 -4 -2 7 -24 2 -58 -14 -77 -34 -153 -57 -190 -57 -31 0 -32 -1
-26 -35 4 -19 16 -55 27 -80 11 -26 18 -53 15 -60 -3 -8 6 -29 19 -49 13 -19
21 -36 19 -39 -13 -12 75 -157 119 -196 9 -8 17 -20 17 -26 0 -19 96 -106 121
-110 38 -5 201 -45 212 -52 32 -19 486 -22 622 -4 156 21 279 58 328 99 11 10
17 11 17 4 0 -7 5 -12 11 -12 6 0 9 7 5 15 -3 10 3 17 22 22 24 6 92 67 92 83
0 4 10 15 21 26 21 19 60 72 89 123 9 14 28 45 42 67 15 23 35 66 44 95 10 30
23 63 30 74 7 11 14 36 16 55 l3 35 -76 2 c-57 2 -86 8 -112 23 -20 12 -44 20
-55 18 -10 -1 -30 5 -45 15 -15 10 -41 20 -59 24 -18 3 -48 17 -67 30 -20 13
-43 22 -53 20 -10 -3 -34 8 -54 24 -20 16 -44 29 -53 29 -9 0 -38 14 -66 30
-27 16 -56 30 -63 30 -7 0 -35 16 -63 35 -28 19 -57 35 -64 35 -22 0 -75 50
-88 83 l-13 30 -11 -26z m-47 -105 c-9 -15 -86 -65 -91 -60 -3 3 16 19 42 37
51 33 57 36 49 23z m249 -62 c3 -6 -1 -7 -9 -4 -18 7 -21 14 -7 14 6 0 13 -4
16 -10z m60 -30 c3 -5 -4 -6 -15 -3 -11 3 -22 9 -25 13 -3 5 4 6 15 3 11 -3
22 -9 25 -13z m-471 -10 c-14 -14 -84 -41 -84 -33 0 5 19 17 43 29 41 21 60
23 41 4z m-119 -58 c-18 -15 -67 -33 -60 -21 7 10 42 27 60 28 5 1 5 -2 0 -7z
m-126 -56 c-2 -2 -15 -7 -29 -10 l-25 -7 25 15 c21 12 42 14 29 2z m-162 -72
c-3 -3 -12 -4 -19 -1 -8 3 -5 6 6 6 11 1 17 -2 13 -5z m542 -86 c1 -5 -6 -8
-14 -8 -21 0 -31 30 -14 41 13 8 26 -8 28 -33z m76 22 c0 -8 -8 -16 -17 -18
-13 -2 -18 3 -18 18 0 15 5 20 18 18 9 -2 17 -10 17 -18z m75 3 c0 -15 1 -15
18 0 23 21 32 21 32 2 0 -8 5 -15 10 -15 6 0 10 5 10 10 0 6 4 10 9 10 6 0 9
-9 8 -20 -1 -17 -6 -20 -30 -14 -16 3 -44 6 -63 6 -27 0 -34 4 -34 19 0 12 7
19 20 19 12 0 20 -7 20 -17z m-203 -7 c-3 -8 -1 -17 6 -19 7 -2 -3 -7 -22 -12
-25 -5 -37 -3 -49 9 -9 8 -12 19 -8 23 4 4 13 0 20 -10 17 -22 26 -22 26 3 0
12 7 20 16 20 10 0 14 -6 11 -14z m330 -16 c-1 -11 -7 -20 -14 -20 -16 0 -17
12 -1 28 16 16 17 15 15 -8z m-397 -22 c0 -12 -38 -10 -45 2 -12 19 5 30 25
17 11 -6 20 -15 20 -19z m460 2 c0 -5 -4 -10 -10 -10 -5 0 -10 5 -10 10 0 6 5
10 10 10 6 0 10 -4 10 -10z m-268 -20 c-12 -11 -24 -20 -27 -20 -3 0 -5 9 -5
20 0 15 7 20 27 20 l27 0 -22 -20z m68 2 c0 -11 -7 -18 -20 -18 -11 0 -20 1
-20 2 0 1 3 9 6 18 8 22 34 20 34 -2z m273 8 c7 0 6 -6 -3 -15 -20 -20 -66 -9
-49 12 7 8 19 11 26 8 8 -3 20 -5 26 -5z m-613 -10 c0 -5 -4 -10 -10 -10 -5 0
-10 5 -10 10 0 6 5 10 10 10 6 0 10 -4 10 -10z m197 -6 c2 -6 -8 -14 -22 -16
-14 -3 -25 -4 -25 -2 0 1 -3 10 -6 19 -6 13 -1 16 21 13 16 -2 30 -8 32 -14z
m212 -3 c-7 -11 -20 -16 -30 -14 -25 7 -12 33 17 33 21 0 23 -2 13 -19z m-450
-5 c10 -11 8 -16 -6 -20 -10 -3 -31 -18 -46 -32 -25 -23 -32 -25 -53 -15 -31
14 -22 33 12 25 20 -5 23 -3 18 11 -6 14 -3 16 16 10 15 -5 20 -4 16 4 -17 27
22 42 43 17z m161 10 c0 -2 3 -11 6 -20 9 -23 -13 -20 -26 4 -9 16 -8 20 5 20
8 0 15 -2 15 -4z m340 -5 c0 -13 -29 -35 -37 -28 -7 8 15 37 28 37 5 0 9 -4 9
-9z m196 -20 c-7 -20 10 -49 21 -37 4 5 2 11 -4 13 -18 6 -16 23 2 23 8 0 15
-4 15 -10 0 -5 5 -10 11 -10 14 0 57 -48 65 -74 6 -18 -9 -36 -31 -36 -6 0
-19 14 -29 31 -17 29 -17 31 0 43 10 8 13 15 7 19 -6 4 -16 0 -23 -8 -11 -13
-16 -12 -42 10 -16 14 -34 25 -39 25 -5 0 -9 5 -9 11 0 6 10 8 23 5 12 -3 16
-3 9 0 -17 8 -5 24 14 17 8 -3 12 -13 10 -22z m-143 12 c11 -10 -13 -33 -34
-33 -17 0 -18 3 -7 20 13 20 29 26 41 13z m-459 -19 c4 -9 4 -19 2 -22 -10 -9
-36 8 -36 23 0 20 26 19 34 -1z m509 -1 c4 -3 -2 -13 -14 -21 -24 -17 -37 -9
-19 13 14 16 23 19 33 8z m-557 -41 c-15 -15 -17 -15 -33 1 -15 15 -16 19 -4
27 9 5 23 5 34 -2 18 -9 18 -11 3 -26z m314 13 c8 -10 11 -35 8 -70 -5 -62 4
-70 28 -22 25 48 55 77 81 77 37 0 37 -22 3 -105 -18 -42 -29 -79 -26 -83 4
-3 26 4 49 16 23 12 51 23 62 24 36 2 65 -2 65 -9 0 -8 -129 -94 -190 -127
-19 -10 -43 -27 -53 -37 -18 -19 -54 -24 -132 -19 -63 4 -146 81 -136 128 1 7
-19 39 -45 72 -39 50 -45 62 -34 75 20 24 43 18 85 -25 21 -22 40 -38 42 -36
2 1 -4 22 -12 46 -20 57 -19 77 5 85 36 11 58 -4 76 -53 25 -68 30 -69 37 -7
3 31 11 63 18 71 15 18 53 18 69 -1z m280 -3 c0 -15 -22 -30 -36 -25 -19 7
-17 21 4 26 28 8 32 7 32 -1z m-640 -22 c13 -9 13 -11 0 -19 -9 -6 -19 -6 -27
1 -28 23 -5 39 27 18z m676 -28 c-12 -13 -18 -13 -31 -2 -14 11 -13 14 2 25
26 19 51 -2 29 -23z m-796 18 c12 -7 12 -12 0 -35 -8 -15 -23 -31 -33 -36 -14
-8 -16 -14 -7 -24 15 -18 0 -25 -30 -13 l-25 10 23 9 c23 9 31 29 11 29 -6 0
-9 6 -6 13 2 7 16 11 33 8 28 -3 28 -2 11 16 -9 11 -17 23 -17 26 0 10 22 8
40 -3z m79 -19 c12 -8 12 -11 -1 -24 -20 -20 -54 -3 -35 18 14 17 18 17 36 6z
m741 -31 c0 -5 -2 -10 -4 -10 -3 0 -8 5 -11 10 -3 6 -1 10 4 10 6 0 11 -4 11
-10z m40 -34 c0 -13 -20 -26 -41 -26 -16 0 -9 28 9 33 29 8 32 7 32 -7z m80
-26 c0 -22 -5 -40 -11 -40 -5 0 -7 -5 -4 -10 8 -13 -19 -40 -42 -41 -10 0 -13
-3 -5 -6 21 -8 13 -23 -13 -23 l-26 0 26 43 c14 24 25 58 25 75 0 28 7 35 43
41 4 0 7 -17 7 -39z m-900 10 c10 -6 11 -12 5 -19 -13 -12 -59 5 -50 19 8 12
25 13 45 0z m820 -30 c0 -5 -4 -10 -9 -10 -5 0 -16 -3 -25 -6 -11 -4 -16 -1
-16 10 0 10 9 16 25 16 14 0 25 -4 25 -10z m-900 -10 c0 -5 -11 -10 -25 -10
-14 0 -25 5 -25 10 0 6 11 10 25 10 14 0 25 -4 25 -10z m80 -10 c0 -5 -9 -10
-19 -10 -11 0 -23 5 -26 10 -4 6 5 10 19 10 14 0 26 -4 26 -10z m-80 -30 c4 0
10 -9 13 -19 8 -31 -32 -35 -44 -5 -12 34 -12 37 7 30 9 -3 19 -6 24 -6z m60
6 c0 -3 -4 -8 -10 -11 -5 -3 -10 -1 -10 4 0 6 5 11 10 11 6 0 10 -2 10 -4z
m30 -6 c0 -5 -2 -10 -4 -10 -3 0 -8 5 -11 10 -3 6 -1 10 4 10 6 0 11 -4 11
-10z m800 -1 c0 -6 -7 -8 -16 -5 -21 8 -41 -4 -24 -14 17 -10 3 -30 -21 -30
-23 0 -24 4 -3 35 17 25 64 35 64 14z m-786 -38 c16 -17 16 -19 -4 -24 -11 -3
-22 -1 -25 3 -3 5 3 11 12 13 11 3 8 5 -9 6 -16 0 -28 6 -28 11 0 17 36 11 54
-9z m716 -21 c12 -8 11 -10 -7 -10 -13 0 -23 -4 -23 -10 0 -5 -9 -10 -20 -10
-13 0 -18 -5 -14 -15 5 -11 -2 -15 -27 -15 -37 0 -36 1 22 40 51 33 49 33 69
20z m-773 -14 c-4 -10 -1 -13 9 -9 7 3 14 1 14 -5 0 -19 -26 -20 -48 -2 -29
24 -28 30 4 30 19 0 25 -4 21 -14z m88 -6 c-3 -5 -13 -10 -21 -10 -8 0 -14 5
-14 10 0 6 9 10 21 10 11 0 17 -4 14 -10z m755 1 c0 -5 -30 -24 -67 -41 -38
-18 -76 -36 -85 -41 -10 -5 -26 -9 -36 -9 -10 0 -23 -5 -29 -11 -12 -12 -33
-4 -33 12 0 5 8 9 18 9 16 1 16 2 -1 14 -10 8 -14 17 -8 20 5 3 16 0 24 -9 13
-13 21 -13 64 2 26 9 64 27 83 40 35 23 70 30 70 14z m-712 -29 c4 -14 -34
-16 -42 -3 -6 10 13 21 28 17 6 -1 12 -8 14 -14z m952 3 c-7 -8 -17 -15 -22
-15 -6 0 -5 7 2 15 7 8 17 15 22 15 6 0 5 -7 -2 -15z m-1004 -20 c18 -14 40
-25 48 -25 9 0 25 -6 37 -12 17 -11 22 -10 33 5 14 19 36 23 36 7 0 -5 -7 -10
-15 -10 -8 0 -15 -6 -15 -14 0 -8 -7 -16 -15 -20 -8 -3 -15 -2 -15 2 0 4 -20
13 -45 20 -25 7 -52 20 -61 31 -10 11 -24 16 -35 14 -19 -5 -26 7 -12 20 11
12 25 8 59 -18z m104 -5 c0 -5 -9 -10 -20 -10 -11 0 -20 5 -20 10 0 6 9 10 20
10 11 0 20 -4 20 -10z m390 -18 c0 -4 -5 -13 -12 -20 -9 -9 -9 -12 0 -12 7 0
12 -5 12 -11 0 -5 -8 -9 -17 -7 -10 1 -23 -1 -30 -5 -16 -10 -193 -20 -193
-11 0 4 8 13 18 20 16 13 16 13 -3 14 -14 0 -16 3 -8 11 16 16 44 4 37 -16 -9
-22 14 -18 26 5 13 24 55 28 46 5 -4 -10 1 -15 15 -15 12 0 17 4 13 11 -3 6 0
15 7 20 20 13 29 11 29 -6 0 -8 7 -15 16 -15 10 0 14 6 11 14 -3 8 -1 17 6 20
19 7 27 7 27 -2z m-276 -8 c23 -9 20 -24 -4 -24 -11 0 -20 7 -20 15 0 17 2 18
24 9z m16 -49 c0 -8 -7 -15 -15 -15 -16 0 -20 12 -8 23 11 12 23 8 23 -8z"/>
<path d="M4515 1870 c-3 -5 1 -10 9 -10 9 0 16 5 16 10 0 6 -4 10 -9 10 -6 0
-13 -4 -16 -10z"/>
<path d="M4530 1840 c0 -5 4 -10 9 -10 6 0 13 5 16 10 3 6 -1 10 -9 10 -9 0
-16 -4 -16 -10z"/>
<path d="M4075 1888 c-2 -7 -6 -40 -7 -73 -3 -56 -5 -60 -28 -63 -23 -2 -27 3
-45 60 -16 50 -25 64 -42 66 -29 4 -29 -3 1 -82 18 -47 21 -67 13 -75 -17 -17
-21 -15 -68 44 -40 50 -69 69 -69 46 0 -5 18 -32 40 -60 24 -30 40 -61 40 -77
0 -20 13 -39 47 -71 44 -40 51 -43 104 -43 39 0 61 5 70 16 7 8 31 25 53 36
23 11 59 33 81 48 22 15 54 35 70 46 23 14 26 19 13 22 -15 3 -56 -15 -159
-69 -42 -22 -49 -23 -49 -8 0 5 14 15 31 21 20 7 29 16 26 27 -2 9 11 49 29
88 19 43 29 75 23 79 -15 9 -36 -13 -70 -72 -21 -37 -37 -54 -51 -54 -18 0
-20 5 -16 77 3 67 1 78 -15 81 -9 2 -19 -2 -22 -10z"/>
<path d="M5100 2100 c0 -5 4 -10 9 -10 6 0 13 5 16 10 3 6 -1 10 -9 10 -9 0
-16 -4 -16 -10z"/>
</g>
</svg>
